<?xml version="1.0" encoding="utf-8"?>
<!-- Generator: Adobe Illustrator 24.1.0, SVG Export Plug-In . SVG Version: 6.00 Build 0)  -->
<svg version="1.1" xmlns="http://www.w3.org/2000/svg" xmlns:xlink="http://www.w3.org/1999/xlink" x="0px" y="0px"
	 viewBox="0 0 612 612" style="enable-background:new 0 0 612 612;" xml:space="preserve">
<style type="text/css">
	.st0{display:none;}
	.st1{fill:#FFFFFF;}
	.st2{font-family:'Arial-BoldMT';}
	.st3{font-size:501.4871px;}
</style>
<g id="Layer_2" class="st0">
</g>
<g id="Layer_1">
	
		<g xmlns:cc="http://creativecommons.org/ns#" xmlns:dc="http://purl.org/dc/elements/1.1/" xmlns:inkscape="http://www.inkscape.org/namespaces/inkscape" xmlns:rdf="http://www.w3.org/1999/02/22-rdf-syntax-ns#" xmlns:sodipodi="http://sodipodi.sourceforge.net/DTD/sodipodi-0.dtd" xmlns:svg="http://www.w3.org/2000/svg">
		<path class="st1" d="M510,6c25.5,0,49.6,10,67.8,28.2S606,76.5,606,102v408c0,25.5-10,49.6-28.2,67.8S535.5,606,510,606H102
			c-25.5,0-49.6-10-67.8-28.2S6,535.5,6,510V102c0-25.5,10-49.6,28.2-67.8S76.5,6,102,6H510 M510,0H102C45.9,0,0,45.9,0,102v408
			c0,56.1,45.9,102,102,102h408c56.1,0,102-45.9,102-102V102C612,45.9,566.1,0,510,0z"/>
		<text transform="matrix(1 0 0 1 128.3008 488.2305)" class="st1 st2 st3">D</text>
	</g>
</g>
</svg>
